<svg width="409" height="91" viewBox="0 0 409 91" fill="none" xmlns="http://www.w3.org/2000/svg">
<path d="M110 52.36C107.707 52.36 105.653 51.9333 103.84 51.08C102.053 50.2 100.653 48.9867 99.64 47.44C98.6533 45.8933 98.16 44.1333 98.16 42.16V33.76C98.16 31.7867 98.6533 30.04 99.64 28.52C100.627 26.9733 102 25.7733 103.76 24.92C105.52 24.0667 107.533 23.64 109.8 23.64C112.067 23.64 114.08 24 115.84 24.72C117.627 25.4133 119.013 26.3867 120 27.64C120.987 28.8933 121.48 30.32 121.48 31.92C121.48 32.7733 121.187 33.4533 120.6 33.96C120.04 34.44 119.28 34.68 118.32 34.68C117.973 34.68 117.6 34.64 117.2 34.56C117.253 34.1333 117.28 33.5867 117.28 32.92C117.28 31.8267 116.96 30.8667 116.32 30.04C115.68 29.1867 114.787 28.5333 113.64 28.08C112.52 27.6 111.24 27.36 109.8 27.36C107.64 27.36 105.867 27.96 104.48 29.16C103.12 30.3333 102.44 31.8667 102.44 33.76V42.16C102.44 43.4133 102.76 44.5333 103.4 45.52C104.04 46.5067 104.933 47.28 106.08 47.84C107.227 48.3733 108.533 48.64 110 48.64C112.187 48.64 113.96 48.12 115.32 47.08C116.707 46.0133 117.4 44.6267 117.4 42.92V41.04H112.88C112 41.04 111.28 40.72 110.72 40.08C110.16 39.4133 109.88 38.56 109.88 37.52H119.64C120.227 37.52 120.707 37.7067 121.08 38.08C121.48 38.4533 121.68 38.9333 121.68 39.52V43C121.68 44.8133 121.187 46.44 120.2 47.88C119.213 49.2933 117.827 50.4 116.04 51.2C114.28 51.9733 112.267 52.36 110 52.36ZM131.96 52.36C129.746 52.36 127.933 51.76 126.52 50.56C125.106 49.3333 124.4 47.7067 124.4 45.68C124.4 43.6267 125.146 41.9867 126.64 40.76C128.133 39.5333 130.066 38.92 132.44 38.92C134.946 38.92 137.013 39.7733 138.64 41.48L138.8 41.32C138.453 40.9467 138.093 40.6 137.72 40.28V38.92C137.72 37.64 137.306 36.6533 136.48 35.96C135.653 35.24 134.493 34.88 133 34.88C130.306 34.88 128.36 35.92 127.16 38C126.653 37.7867 126.24 37.4933 125.92 37.12C125.626 36.72 125.48 36.32 125.48 35.92C125.48 35.1733 125.84 34.48 126.56 33.84C127.28 33.1733 128.24 32.64 129.44 32.24C130.64 31.84 131.92 31.64 133.28 31.64C135.893 31.64 137.946 32.28 139.44 33.56C140.933 34.84 141.68 36.5867 141.68 38.8V49.44C141.68 50.4533 141.373 51.2 140.76 51.68C140.146 52.1333 139.2 52.36 137.92 52.36V50.56C138.48 49.9467 138.786 49.6 138.84 49.52L138.68 49.36C137.8 50.3733 136.813 51.1333 135.72 51.64C134.653 52.12 133.4 52.36 131.96 52.36ZM132.8 49.32C134.373 49.32 135.6 49 136.48 48.36C137.36 47.72 137.8 46.8267 137.8 45.68C137.8 44.5333 137.36 43.6267 136.48 42.96C135.6 42.2933 134.4 41.96 132.88 41.96C131.466 41.96 130.346 42.2933 129.52 42.96C128.693 43.6267 128.28 44.5333 128.28 45.68C128.28 46.8267 128.68 47.72 129.48 48.36C130.28 49 131.386 49.32 132.8 49.32ZM152.845 52.36C150.792 52.36 149.258 51.8 148.245 50.68C147.232 49.5333 146.725 48.04 146.725 46.2V26.36C146.725 25.4 147.045 24.7067 147.685 24.28C148.352 23.8533 149.365 23.64 150.725 23.64V46.04C150.725 47.0533 150.925 47.7867 151.325 48.24C151.752 48.6667 152.445 48.88 153.405 48.88C154.392 48.88 155.325 48.6267 156.205 48.12C156.605 48.5733 156.805 49.1067 156.805 49.72C156.805 50.4133 156.445 51.0267 155.725 51.56C155.032 52.0933 154.072 52.36 152.845 52.36ZM166.374 52.36C164.16 52.36 162.347 51.76 160.934 50.56C159.52 49.3333 158.814 47.7067 158.814 45.68C158.814 43.6267 159.56 41.9867 161.054 40.76C162.547 39.5333 164.48 38.92 166.854 38.92C169.36 38.92 171.427 39.7733 173.054 41.48L173.214 41.32C172.867 40.9467 172.507 40.6 172.134 40.28V38.92C172.134 37.64 171.72 36.6533 170.894 35.96C170.067 35.24 168.907 34.88 167.414 34.88C164.72 34.88 162.774 35.92 161.574 38C161.067 37.7867 160.654 37.4933 160.334 37.12C160.04 36.72 159.894 36.32 159.894 35.92C159.894 35.1733 160.254 34.48 160.974 33.84C161.694 33.1733 162.654 32.64 163.854 32.24C165.054 31.84 166.334 31.64 167.694 31.64C170.307 31.64 172.36 32.28 173.854 33.56C175.347 34.84 176.094 36.5867 176.094 38.8V49.44C176.094 50.4533 175.787 51.2 175.174 51.68C174.56 52.1333 173.614 52.36 172.334 52.36V50.56C172.894 49.9467 173.2 49.6 173.254 49.52L173.094 49.36C172.214 50.3733 171.227 51.1333 170.134 51.64C169.067 52.12 167.814 52.36 166.374 52.36ZM167.214 49.32C168.787 49.32 170.014 49 170.894 48.36C171.774 47.72 172.214 46.8267 172.214 45.68C172.214 44.5333 171.774 43.6267 170.894 42.96C170.014 42.2933 168.814 41.96 167.294 41.96C165.88 41.96 164.76 42.2933 163.934 42.96C163.107 43.6267 162.694 44.5333 162.694 45.68C162.694 46.8267 163.094 47.72 163.894 48.36C164.694 49 165.8 49.32 167.214 49.32ZM188.793 52.36C187.14 52.36 185.66 52.0667 184.353 51.48C183.073 50.8667 182.073 50.0267 181.353 48.96C180.633 47.8667 180.273 46.6267 180.273 45.24V39.04C180.273 37.6 180.62 36.32 181.313 35.2C182.033 34.08 183.033 33.2133 184.313 32.6C185.62 31.96 187.1 31.64 188.753 31.64C190.3 31.64 191.673 31.8667 192.873 32.32C194.073 32.7467 195.006 33.36 195.673 34.16C196.366 34.96 196.713 35.88 196.713 36.92C196.713 37.6667 196.406 38.2667 195.793 38.72C195.18 39.1467 194.406 39.3333 193.473 39.28C193.473 38.0533 193.033 37.0533 192.153 36.28C191.3 35.5067 190.193 35.12 188.833 35.12C187.473 35.12 186.366 35.4933 185.513 36.24C184.66 36.9867 184.233 37.96 184.233 39.16V45C184.233 46.1467 184.66 47.08 185.513 47.8C186.393 48.52 187.526 48.88 188.913 48.88C190.273 48.88 191.38 48.4933 192.233 47.72C193.113 46.9467 193.553 45.96 193.553 44.76C194.513 44.68 195.3 44.8533 195.913 45.28C196.526 45.7067 196.833 46.2933 196.833 47.04C196.833 48.08 196.486 49 195.793 49.8C195.126 50.6 194.18 51.2267 192.953 51.68C191.726 52.1333 190.34 52.36 188.793 52.36ZM208.487 52.36C206.487 52.36 205.007 51.8 204.047 50.68C203.087 49.5333 202.607 48.04 202.607 46.2V35.12H198.767C198.767 34.08 198.981 33.3067 199.407 32.8C199.834 32.2667 200.407 32 201.127 32H202.687V28.36C202.687 27.4 203.007 26.7067 203.647 26.28C204.287 25.8533 205.261 25.64 206.567 25.64V32H211.887C211.887 33.0667 211.661 33.8533 211.207 34.36C210.781 34.8667 210.101 35.12 209.167 35.12H206.647V46.04C206.647 47.0533 206.834 47.7867 207.207 48.24C207.581 48.6667 208.247 48.88 209.207 48.88C210.141 48.88 211.047 48.6267 211.927 48.12C212.354 48.5467 212.567 49.08 212.567 49.72C212.567 50.4133 212.207 51.0267 211.487 51.56C210.767 52.0933 209.767 52.36 208.487 52.36ZM219.489 29C218.689 29 218.009 28.7467 217.449 28.24C216.889 27.7333 216.609 27.0933 216.609 26.32C216.609 25.5467 216.889 24.9067 217.449 24.4C218.009 23.8933 218.689 23.64 219.489 23.64C220.289 23.64 220.955 23.8933 221.489 24.4C222.049 24.9067 222.329 25.5467 222.329 26.32C222.329 27.0933 222.049 27.7333 221.489 28.24C220.955 28.7467 220.289 29 219.489 29ZM217.489 34.36C217.489 33.4 217.809 32.7067 218.449 32.28C219.115 31.8533 220.115 31.64 221.449 31.64V49.64C221.449 50.5733 221.115 51.2667 220.449 51.72C219.809 52.1467 218.822 52.36 217.489 52.36V34.36ZM235.824 52.36C234.171 52.36 232.691 52.0667 231.384 51.48C230.104 50.8667 229.104 50.0267 228.384 48.96C227.664 47.8667 227.304 46.6267 227.304 45.24V39.04C227.304 37.6 227.651 36.32 228.344 35.2C229.064 34.08 230.064 33.2133 231.344 32.6C232.651 31.96 234.131 31.64 235.784 31.64C237.331 31.64 238.704 31.8667 239.904 32.32C241.104 32.7467 242.038 33.36 242.704 34.16C243.398 34.96 243.744 35.88 243.744 36.92C243.744 37.6667 243.438 38.2667 242.824 38.72C242.211 39.1467 241.438 39.3333 240.504 39.28C240.504 38.0533 240.064 37.0533 239.184 36.28C238.331 35.5067 237.224 35.12 235.864 35.12C234.504 35.12 233.398 35.4933 232.544 36.24C231.691 36.9867 231.264 37.96 231.264 39.16V45C231.264 46.1467 231.691 47.08 232.544 47.8C233.424 48.52 234.558 48.88 235.944 48.88C237.304 48.88 238.411 48.4933 239.264 47.72C240.144 46.9467 240.584 45.96 240.584 44.76C241.544 44.68 242.331 44.8533 242.944 45.28C243.558 45.7067 243.864 46.2933 243.864 47.04C243.864 48.08 243.518 49 242.824 49.8C242.158 50.6 241.211 51.2267 239.984 51.68C238.758 52.1333 237.371 52.36 235.824 52.36ZM248.171 26C248.171 25.4133 248.371 24.9333 248.771 24.56C249.198 24.1867 249.731 24 250.371 24H261.851C263.665 24 265.265 24.3733 266.651 25.12C268.065 25.84 269.158 26.88 269.931 28.24C270.705 29.5733 271.091 31.12 271.091 32.88C271.091 34.6667 270.705 36.24 269.931 37.6C269.185 38.96 268.105 40.0133 266.691 40.76C265.305 41.48 263.691 41.84 261.851 41.84H252.491V48.96C252.491 50.0533 252.118 50.8933 251.371 51.48C250.625 52.0667 249.558 52.36 248.171 52.36V26ZM261.851 38.08C263.398 38.08 264.611 37.6267 265.491 36.72C266.371 35.7867 266.811 34.5067 266.811 32.88C266.811 31.3067 266.358 30.0667 265.451 29.16C264.571 28.2267 263.371 27.76 261.851 27.76H252.491V38.08H261.851ZM276.872 29C276.072 29 275.392 28.7467 274.832 28.24C274.272 27.7333 273.992 27.0933 273.992 26.32C273.992 25.5467 274.272 24.9067 274.832 24.4C275.392 23.8933 276.072 23.64 276.872 23.64C277.672 23.64 278.338 23.8933 278.872 24.4C279.432 24.9067 279.712 25.5467 279.712 26.32C279.712 27.0933 279.432 27.7333 278.872 28.24C278.338 28.7467 277.672 29 276.872 29ZM274.872 34.36C274.872 33.4 275.192 32.7067 275.832 32.28C276.498 31.8533 277.498 31.64 278.832 31.64V49.64C278.832 50.5733 278.498 51.2667 277.832 51.72C277.192 52.1467 276.205 52.36 274.872 52.36V34.36ZM291.087 52.36C289.034 52.36 287.501 51.8 286.487 50.68C285.474 49.5333 284.967 48.04 284.967 46.2V26.36C284.967 25.4 285.287 24.7067 285.927 24.28C286.594 23.8533 287.607 23.64 288.967 23.64V46.04C288.967 47.0533 289.167 47.7867 289.567 48.24C289.994 48.6667 290.687 48.88 291.647 48.88C292.634 48.88 293.567 48.6267 294.447 48.12C294.847 48.5733 295.047 49.1067 295.047 49.72C295.047 50.4133 294.687 51.0267 293.967 51.56C293.274 52.0933 292.314 52.36 291.087 52.36ZM305.665 60.36C304.199 60.36 302.865 60.1333 301.665 59.68C300.465 59.2533 299.519 58.6533 298.825 57.88C298.132 57.1333 297.785 56.3067 297.785 55.4C297.785 53.96 298.759 53.24 300.705 53.24C300.759 54.44 301.212 55.3867 302.065 56.08C302.945 56.7733 304.145 57.12 305.665 57.12C308.892 57.12 310.505 55.5333 310.505 52.36V50.36C310.879 50.04 311.159 49.7467 311.345 49.48L311.225 49.28C310.479 50.0533 309.519 50.6933 308.345 51.2C307.199 51.7067 306.065 51.96 304.945 51.96C303.452 51.96 302.105 51.6667 300.905 51.08C299.732 50.4933 298.812 49.68 298.145 48.64C297.479 47.5733 297.145 46.3467 297.145 44.96V38.68C297.145 37.32 297.492 36.1067 298.185 35.04C298.879 33.9733 299.812 33.1467 300.985 32.56C302.159 31.9467 303.452 31.64 304.865 31.64C306.305 31.64 307.545 31.9467 308.585 32.56C309.652 33.1733 310.599 34.0133 311.425 35.08L311.585 34.92C311.345 34.5467 311.079 34.2 310.785 33.88C310.785 32.3867 312.039 31.64 314.545 31.64V51.88C314.545 53.5333 314.159 55 313.385 56.28C312.639 57.5867 311.585 58.5867 310.225 59.28C308.892 60 307.372 60.36 305.665 60.36ZM305.785 48.52C307.145 48.52 308.279 48.1733 309.185 47.48C310.119 46.76 310.585 45.9067 310.585 44.92V38.68C310.585 37.6667 310.132 36.8133 309.225 36.12C308.319 35.4267 307.199 35.08 305.865 35.08C304.345 35.08 303.172 35.4133 302.345 36.08C301.545 36.7467 301.145 37.68 301.145 38.88V44.72C301.145 45.8933 301.545 46.8267 302.345 47.52C303.172 48.1867 304.319 48.52 305.785 48.52ZM329.013 35.12C327.493 35.12 326.239 35.56 325.253 36.44C324.266 37.32 323.773 38.4 323.773 39.68V49.64C323.773 50.6 323.439 51.2933 322.773 51.72C322.133 52.1467 321.133 52.36 319.773 52.36V34.88C319.773 32.72 321.053 31.64 323.613 31.64V34.04C323.266 34.44 322.959 34.8533 322.693 35.28L322.893 35.44C324.573 32.9067 326.693 31.64 329.253 31.64C330.266 31.64 331.039 31.8933 331.573 32.4C332.133 32.9067 332.413 33.5333 332.413 34.28C332.413 34.84 332.266 35.32 331.973 35.72C331.226 35.32 330.239 35.12 329.013 35.12ZM341.178 52.36C338.965 52.36 337.152 51.76 335.738 50.56C334.325 49.3333 333.618 47.7067 333.618 45.68C333.618 43.6267 334.365 41.9867 335.858 40.76C337.352 39.5333 339.285 38.92 341.658 38.92C344.165 38.92 346.232 39.7733 347.858 41.48L348.018 41.32C347.672 40.9467 347.312 40.6 346.938 40.28V38.92C346.938 37.64 346.525 36.6533 345.698 35.96C344.872 35.24 343.712 34.88 342.218 34.88C339.525 34.88 337.578 35.92 336.378 38C335.872 37.7867 335.458 37.4933 335.138 37.12C334.845 36.72 334.698 36.32 334.698 35.92C334.698 35.1733 335.058 34.48 335.778 33.84C336.498 33.1733 337.458 32.64 338.658 32.24C339.858 31.84 341.138 31.64 342.498 31.64C345.112 31.64 347.165 32.28 348.658 33.56C350.152 34.84 350.898 36.5867 350.898 38.8V49.44C350.898 50.4533 350.592 51.2 349.978 51.68C349.365 52.1333 348.418 52.36 347.138 52.36V50.56C347.698 49.9467 348.005 49.6 348.058 49.52L347.898 49.36C347.018 50.3733 346.032 51.1333 344.938 51.64C343.872 52.12 342.618 52.36 341.178 52.36ZM342.018 49.32C343.592 49.32 344.818 49 345.698 48.36C346.578 47.72 347.018 46.8267 347.018 45.68C347.018 44.5333 346.578 43.6267 345.698 42.96C344.818 42.2933 343.618 41.96 342.098 41.96C340.685 41.96 339.565 42.2933 338.738 42.96C337.912 43.6267 337.498 44.5333 337.498 45.68C337.498 46.8267 337.898 47.72 338.698 48.36C339.498 49 340.605 49.32 342.018 49.32ZM355.984 34.88C355.984 32.72 357.25 31.64 359.784 31.64V34.16C359.517 34.4267 359.224 34.8 358.904 35.28L359.104 35.44C359.957 34.2133 360.85 33.28 361.784 32.64C362.717 31.9733 363.824 31.64 365.104 31.64C367.504 31.64 369.144 32.7867 370.024 35.08C371.517 32.7867 373.544 31.64 376.104 31.64C377.97 31.64 379.424 32.28 380.464 33.56C381.53 34.84 382.064 36.5067 382.064 38.56V49.64C382.064 50.5733 381.73 51.2667 381.064 51.72C380.424 52.1467 379.437 52.36 378.104 52.36V38.84C378.104 36.3067 377.077 35.04 375.024 35.04C373.904 35.04 372.944 35.4267 372.144 36.2C371.37 36.9467 370.984 38 370.984 39.36V49.64C370.984 50.6 370.664 51.2933 370.024 51.72C369.384 52.1467 368.41 52.36 367.104 52.36V38.84C367.104 37.6667 366.85 36.7467 366.344 36.08C365.837 35.3867 365.05 35.04 363.984 35.04C362.81 35.04 361.837 35.4667 361.064 36.32C360.317 37.1467 359.944 38.2 359.944 39.48V49.64C359.944 50.5733 359.61 51.2667 358.944 51.72C358.304 52.1467 357.317 52.36 355.984 52.36V34.88ZM394.559 52.36C393.093 52.36 391.733 52.16 390.479 51.76C389.253 51.3333 388.279 50.7333 387.559 49.96C386.839 49.16 386.479 48.2533 386.479 47.24C386.479 45.88 387.373 45.16 389.159 45.08C389.399 46.4667 389.999 47.5067 390.959 48.2C391.946 48.8667 393.159 49.2 394.599 49.2C396.093 49.2 397.253 48.9867 398.079 48.56C398.906 48.1333 399.319 47.4933 399.319 46.64C399.319 45.7867 398.946 45.12 398.199 44.64C397.479 44.16 396.119 43.7067 394.119 43.28C392.279 42.8533 390.826 42.4133 389.759 41.96C388.693 41.5067 387.893 40.9067 387.359 40.16C386.826 39.3867 386.559 38.4 386.559 37.2C386.559 36.1333 386.879 35.1867 387.519 34.36C388.159 33.5067 389.053 32.84 390.199 32.36C391.373 31.88 392.719 31.64 394.239 31.64C395.679 31.64 396.999 31.8267 398.199 32.2C399.426 32.5733 400.399 33.12 401.119 33.84C401.866 34.5333 402.239 35.3467 402.239 36.28C402.239 37.5867 401.253 38.28 399.279 38.36C399.146 37.24 398.653 36.36 397.799 35.72C396.973 35.08 395.826 34.76 394.359 34.76C393.159 34.76 392.186 34.9867 391.439 35.44C390.693 35.8667 390.319 36.44 390.319 37.16C390.319 37.9067 390.653 38.48 391.319 38.88C392.013 39.2533 393.186 39.6267 394.839 40C397.693 40.5867 399.786 41.3867 401.119 42.4C402.453 43.3867 403.119 44.7867 403.119 46.6C403.119 48.4133 402.359 49.8267 400.839 50.84C399.346 51.8533 397.253 52.36 394.559 52.36Z" fill="white"/>
</svg>
